<svg width="246" height="118" viewBox="0 0 246 118" fill="none" xmlns="http://www.w3.org/2000/svg">
<path d="M149.447 21.0897C149.434 20.8684 149.34 20.6597 149.183 20.5031C149.026 20.3465 148.817 20.2529 148.595 20.2401C137.211 19.5604 128.105 22.9815 124.235 29.3683C121.598 33.7228 121.705 38.8658 124.516 43.9158C122.532 46.0955 121.222 48.8033 120.744 51.7119L115.422 46.3899C117.377 42.7649 117.418 39.0651 115.517 35.925C112.703 31.2782 106.11 28.7951 97.8749 29.2776C97.6548 29.2915 97.4472 29.3853 97.2912 29.5413C97.1352 29.6973 97.0415 29.9048 97.0276 30.125C96.545 38.356 99.0281 44.949 103.675 47.7629C105.166 48.6784 106.882 49.1631 108.632 49.163C110.564 49.1302 112.457 48.6162 114.14 47.6677L120.531 54.0658V60.9375C120.531 61.1778 120.627 61.4083 120.797 61.5783C120.967 61.7482 121.197 61.8437 121.437 61.8437C121.678 61.8437 121.908 61.7482 122.078 61.5783C122.248 61.4083 122.344 61.1778 122.344 60.9375V54.2561C122.335 50.9104 123.57 47.6807 125.808 45.1936C128.411 46.6346 131.035 47.3596 133.565 47.3596C135.949 47.36 138.287 46.7005 140.319 45.4542C146.704 41.5822 150.118 32.4767 149.447 21.0897ZM104.613 46.2109C100.7 43.8456 98.5546 38.211 98.7993 31.0494C105.961 30.8047 111.596 32.9502 113.961 36.8629C115.429 39.2894 115.454 42.1577 114.065 45.0396L107.576 38.5463C107.404 38.3901 107.178 38.3062 106.946 38.3119C106.713 38.3176 106.492 38.4126 106.327 38.5771C106.163 38.7416 106.068 38.963 106.062 39.1956C106.056 39.4281 106.14 39.654 106.296 39.8264L112.792 46.3219C109.908 47.7108 107.039 47.6858 104.613 46.2109ZM139.379 43.9C135.743 46.1022 131.429 46.0727 127.126 43.8433L140.204 30.7639C140.367 30.5927 140.456 30.3646 140.453 30.1283C140.451 29.892 140.356 29.6661 140.189 29.4988C140.022 29.3316 139.796 29.2362 139.56 29.2329C139.323 29.2297 139.095 29.3189 138.924 29.4815L125.844 42.561C123.615 38.2563 123.578 33.9516 125.787 30.3085C129.211 24.6444 137.36 21.579 147.68 22.0072C148.111 32.3272 145.034 40.4766 139.379 43.9Z" fill="black"/>
<circle cx="123.25" cy="41" r="40" stroke="black" stroke-width="2"/>
<path d="M44.2213 104.193H47.0796C49.2979 104.193 50.2364 103.148 50.2364 101.484C50.2364 99.7566 49.2979 98.7327 47.0796 98.7327H44.2213V104.193ZM52.2201 101.484C52.2201 103.745 50.7697 105.793 47.0796 105.793H44.2213V112H42.2803V97.133H47.0796C50.5777 97.133 52.2201 99.0527 52.2201 101.484ZM54.6326 112V96.2158H56.5736V112H54.6326ZM59.1565 106.113C59.1565 102.465 61.5668 100.119 64.7023 100.119C66.878 100.119 68.3711 101.228 69.0536 102.444V100.311H71.016V112H69.0536V109.824C68.3497 111.083 66.8353 112.192 64.681 112.192C61.5668 112.192 59.1565 109.739 59.1565 106.113ZM69.0536 106.134C69.0536 103.425 67.2193 101.804 65.0863 101.804C62.9533 101.804 61.1402 103.361 61.1402 106.113C61.1402 108.864 62.9533 110.486 65.0863 110.486C67.2193 110.486 69.0536 108.886 69.0536 106.134ZM82.8495 112V105.388C82.8495 102.999 81.5484 101.783 79.586 101.783C77.6023 101.783 76.2372 103.02 76.2372 105.537V112H74.2962V100.311H76.2372V101.975C77.0051 100.759 78.4128 100.098 79.9913 100.098C82.7002 100.098 84.7692 101.762 84.7692 105.11V112H82.8495ZM88.3664 108.8V101.911H86.852V100.311H88.3664V97.3676H90.3075V100.311H93.3577V101.911H90.3075V108.8C90.3075 109.952 90.7341 110.358 91.9286 110.358H93.3577V112H91.6086C89.5396 112 88.3664 111.147 88.3664 108.8ZM103.337 104.193H106.195C108.414 104.193 109.352 103.148 109.352 101.484C109.352 99.7566 108.414 98.7327 106.195 98.7327H103.337V104.193ZM111.336 101.484C111.336 103.745 109.885 105.793 106.195 105.793H103.337V112H101.396V97.133H106.195C109.693 97.133 111.336 99.0527 111.336 101.484ZM115.689 105.644V112H113.748V100.311H115.689V102.21C116.351 100.908 117.609 100.098 119.465 100.098V102.103H118.953C117.097 102.103 115.689 102.935 115.689 105.644ZM132.797 106.134C132.797 109.846 130.131 112.192 126.803 112.192C123.497 112.192 120.98 109.846 120.98 106.134C120.98 102.444 123.582 100.119 126.889 100.119C130.216 100.119 132.797 102.444 132.797 106.134ZM122.964 106.134C122.964 109.099 124.777 110.486 126.803 110.486C128.83 110.486 130.813 109.099 130.813 106.134C130.813 103.191 128.872 101.804 126.867 101.804C124.82 101.804 122.964 103.191 122.964 106.134ZM135.776 108.8V101.911H134.261V100.311H135.776V97.3676H137.717V100.311H140.767V101.911H137.717V108.8C137.717 109.952 138.143 110.358 139.338 110.358H140.767V112H139.018C136.949 112 135.776 111.147 135.776 108.8ZM148.089 101.762C146.19 101.762 144.612 103.02 144.399 105.302H151.779C151.8 103.02 150.094 101.762 148.089 101.762ZM153.549 108.395C152.952 110.528 151.075 112.192 148.174 112.192C144.846 112.192 142.394 109.846 142.394 106.134C142.394 102.444 144.761 100.119 148.174 100.119C151.565 100.119 153.784 102.508 153.784 105.708C153.784 106.134 153.762 106.476 153.72 106.881H144.377C144.527 109.248 146.19 110.55 148.174 110.55C149.923 110.55 151.032 109.654 151.459 108.395H153.549ZM155.621 106.134C155.621 102.465 157.988 100.119 161.316 100.119C164.217 100.119 166.115 101.612 166.712 104.065H164.622C164.217 102.657 163.043 101.762 161.316 101.762C159.183 101.762 157.604 103.276 157.604 106.134C157.604 109.035 159.183 110.55 161.316 110.55C163.043 110.55 164.195 109.718 164.622 108.246H166.712C166.115 110.571 164.217 112.192 161.316 112.192C157.988 112.192 155.621 109.846 155.621 106.134ZM169.729 108.8V101.911H168.214V100.311H169.729V97.3676H171.67V100.311H174.72V101.911H171.67V108.8C171.67 109.952 172.096 110.358 173.291 110.358H174.72V112H172.971C170.902 112 169.729 111.147 169.729 108.8ZM177.072 112V100.311H179.013V112H177.072ZM178.074 98.4128C177.328 98.4128 176.752 97.8369 176.752 97.0903C176.752 96.3438 177.328 95.7679 178.074 95.7679C178.778 95.7679 179.354 96.3438 179.354 97.0903C179.354 97.8369 178.778 98.4128 178.074 98.4128ZM180.934 100.311H183.025L186.672 110.208L190.298 100.311H192.367L187.781 112H185.52L180.934 100.311ZM199.247 101.762C197.349 101.762 195.771 103.02 195.557 105.302H202.937C202.959 103.02 201.252 101.762 199.247 101.762ZM204.708 108.395C204.111 110.528 202.233 112.192 199.333 112.192C196.005 112.192 193.552 109.846 193.552 106.134C193.552 102.444 195.92 100.119 199.333 100.119C202.724 100.119 204.942 102.508 204.942 105.708C204.942 106.134 204.921 106.476 204.878 106.881H195.536C195.685 109.248 197.349 110.55 199.333 110.55C201.082 110.55 202.191 109.654 202.617 108.395H204.708Z" fill="#2B2B2B"/>
</svg>
