<svg width="22" height="23" viewBox="0 0 22 23" fill="none" xmlns="http://www.w3.org/2000/svg">
<g clip-path="url(#clip0_1_1797)">
<path d="M21.2343 2.7L21.9677 2.6516C21.9581 2.50763 21.9064 2.36967 21.8188 2.25499C21.7313 2.14031 21.6118 2.054 21.4754 2.00687C21.3391 1.95975 21.1918 1.95389 21.0522 1.99005C20.9125 2.02621 20.7866 2.10276 20.6902 2.21013L21.2343 2.7ZM20.5039 7.03987C20.5039 6.84538 20.4267 6.65885 20.2891 6.52132C20.1516 6.3838 19.9651 6.30653 19.7706 6.30653C19.5761 6.30653 19.3896 6.3838 19.252 6.52132C19.1145 6.65885 19.0373 6.84538 19.0373 7.03987H20.5039ZM0.733256 18.8333V18.1C0.575793 18.0998 0.42245 18.1503 0.295911 18.244C0.169372 18.3377 0.0763584 18.4697 0.0306292 18.6204C-0.0151 18.771 -0.0111157 18.9324 0.0419928 19.0807C0.0951013 19.2289 0.194513 19.3561 0.325522 19.4435L0.733256 18.8333ZM2.19699 2.7L2.88486 2.44333C2.83487 2.30944 2.74685 2.19307 2.63161 2.10853C2.51637 2.02399 2.37894 1.97497 2.23621 1.96749C2.09349 1.96001 1.95169 1.9944 1.82824 2.06643C1.7048 2.13846 1.6051 2.245 1.54139 2.37293L2.19699 2.7ZM8.05486 15.9L8.57406 16.4177C8.66214 16.3294 8.72623 16.22 8.76024 16.0999C8.79426 15.9799 8.79708 15.8532 8.76845 15.7317C8.73981 15.6103 8.68067 15.4981 8.5966 15.4059C8.51254 15.3137 8.40634 15.2445 8.28806 15.2048L8.05486 15.9ZM18.6501 4.12707L18.1074 4.61987L18.3714 4.91173L18.7601 4.85307L18.6501 4.12707ZM20.5039 2.7484C20.5787 3.88947 20.5083 4.58173 20.3235 5.10387C20.1446 5.60987 19.8307 6.0264 19.2631 6.57053L20.2781 7.62947C20.9205 7.01347 21.4162 6.4092 21.7066 5.59373C21.9897 4.79293 22.0483 3.866 21.9677 2.6516L20.5039 2.7484ZM20.5039 8.1076V7.03987H19.0373V8.10907H20.5039V8.1076ZM10.2519 7.16013V8.56667H11.7186V7.16013H10.2519ZM10.2519 8.56667V9.3H11.7186V8.56667H10.2519ZM15.4366 1.96667C14.755 1.96705 14.0801 2.10169 13.4505 2.3629C12.8209 2.6241 12.2489 3.00676 11.7672 3.48901C11.2855 3.97127 10.9035 4.54369 10.643 5.17358C10.3825 5.80347 10.2486 6.4785 10.249 7.16013H11.7157C11.7153 6.67099 11.8113 6.18655 11.9981 5.73451C12.185 5.28247 12.4591 4.87167 12.8048 4.52558C13.1505 4.1795 13.5609 3.90491 14.0128 3.7175C14.4646 3.53009 14.9489 3.43353 15.4381 3.43333V1.96667H15.4366ZM19.0358 8.1076C19.0373 14.4377 13.9142 19.5667 7.59726 19.5667V21.0333C14.7253 21.0333 20.5039 15.2459 20.5039 8.1076H19.0358ZM1.51059 2.95667C2.30846 5.08627 5.30046 9.3 10.9853 9.3V7.83333C6.12179 7.83333 3.55072 4.22533 2.88339 2.44333L1.51059 2.95667ZM1.54139 2.37293C0.00578871 5.44707 -0.230344 8.43027 0.885789 10.9705C1.99899 13.5035 4.39406 15.4512 7.82312 16.5952L8.28806 15.2048C5.12739 14.1488 3.12832 12.4299 2.22779 10.3795C1.33019 8.3364 1.46072 5.81813 2.85406 3.02707L1.54139 2.37293ZM7.53566 15.3823C6.65272 16.2667 3.99806 18.1 0.733256 18.1V19.5667C4.49672 19.5667 7.50486 17.4899 8.57406 16.4177L7.53566 15.3823ZM19.1942 3.63573C18.72 3.10986 18.1406 2.68953 17.4935 2.402C16.8464 2.11446 16.1461 1.96615 15.4381 1.96667V3.43333C16.4955 3.43333 17.4474 3.88947 18.1074 4.61987L19.1942 3.63573ZM18.7601 4.85307C19.9283 4.6622 20.9952 4.07488 21.7814 3.18987L20.6902 2.21013C20.131 2.84188 19.3721 3.26276 18.5401 3.40253L18.7601 4.85307ZM0.325522 19.4435C2.73232 21.048 5.25499 21.0333 7.59726 21.0333V19.5667C5.20659 19.5667 3.12686 19.5505 1.14099 18.2232L0.325522 19.4435Z" fill="white"/>
</g>
<defs>
<clipPath id="clip0_1_1797">
<rect width="22" height="22" fill="white" transform="translate(0 0.5)"/>
</clipPath>
</defs>
</svg>
