<svg width="94" height="83" viewBox="0 0 94 83" fill="none" xmlns="http://www.w3.org/2000/svg">
<rect x="1.94214" y="1.47168" width="90.1158" height="80.0568" rx="8" stroke="white" stroke-width="2"/>
<path d="M68.5723 63.2098L66.0513 60.4653C66.2217 56.8159 66.5033 38.9308 56.5303 28.0732C47.9005 18.6785 34.2186 17.6643 28.7366 17.6643C27.1674 17.6643 26.2244 17.7454 26.1853 17.7488C25.568 17.8031 25.0775 18.3363 25.0283 19.0084C24.9652 19.8666 23.6018 40.1663 34.5121 52.0429C43.1419 61.4376 56.825 62.4512 62.307 62.4512C63.1642 62.4512 63.8257 62.4271 64.2644 62.4051L66.7879 65.1523C67.0341 65.421 67.3573 65.555 67.6804 65.555C68.0036 65.555 68.3268 65.421 68.573 65.1523C69.0653 64.6157 69.0653 63.7464 68.5723 63.2098ZM36.2965 50.0997C27.6642 40.7023 27.3883 24.8945 27.4956 20.4321C27.8403 20.4211 28.2575 20.4136 28.7366 20.4136C33.9042 20.4136 46.7826 21.3495 54.7452 30.0171C62.3979 38.3481 63.4823 51.7131 63.5555 57.7476L54.2409 47.6081L55.4137 36.6653C55.4945 35.9115 54.9983 35.2292 54.3066 35.1412C53.6084 35.0546 52.9873 35.5933 52.9065 36.3465L51.9654 45.1302L45.5884 38.1887L44.6025 30.0652C44.5109 29.3128 43.8734 28.781 43.1854 28.8827C42.4942 28.9823 42.0076 29.6729 42.0991 30.4253L42.6533 34.9941L35.2588 26.9435C34.7665 26.4069 33.9661 26.4069 33.4737 26.9435C32.9808 27.4802 32.9808 28.3501 33.4737 28.8868L40.8676 36.936L36.672 36.3327C35.9809 36.2338 35.3459 36.7629 35.255 37.5153C35.1635 38.2677 35.6501 38.9583 36.3413 39.0579L43.8021 40.1313L50.1791 47.0728L42.1111 48.0973C41.4187 48.1853 40.9232 48.8676 41.004 49.6214C41.0791 50.3216 41.6245 50.837 42.2563 50.837C42.3049 50.837 42.3541 50.8343 42.404 50.8274L52.4552 49.5513L61.7781 59.7005C56.3068 59.6339 44.0003 58.4863 36.2965 50.0997Z" fill="white"/>
</svg>
